<?xml version="1.0" encoding="UTF-8"?>
<svg version="1.1" xmlns="http://www.w3.org/2000/svg" width="512" height="512">
<path d="M0 0 C2.59729509 2.31710743 5.13711895 4.68292023 7.66015625 7.08105469 C10.16735285 9.47708274 10.16735285 9.47708274 12.84765625 11.55371094 C16.45412744 14.45677121 19.22241494 17.93649032 22.2109375 21.45605469 C23.02691406 22.37257813 23.84289062 23.28910156 24.68359375 24.23339844 C32.45702821 33.03968675 38.9758093 42.51331495 45.2109375 52.45605469 C45.62085938 53.10380859 46.03078125 53.7515625 46.453125 54.41894531 C57.8156705 72.62570866 65.37078144 93.61351557 70.2109375 114.45605469 C70.41976563 115.33438965 70.62859375 116.21272461 70.84375 117.11767578 C82.44426261 168.33797709 72.03795741 226.14117488 44.2109375 270.45605469 C37.31322578 281.105483 29.59270594 290.94721692 21.2109375 300.45605469 C20.49035156 301.29910156 19.76976562 302.14214844 19.02734375 303.01074219 C14.7500285 307.96342301 10.21540136 312.25298709 5.2109375 316.45605469 C4.29957031 317.266875 3.38820313 318.07769531 2.44921875 318.91308594 C-31.23737031 348.66650297 -77.29854245 368.23479105 -122.50390625 368.69433594 C-123.30864883 368.70417511 -124.11339142 368.71401428 -124.94252014 368.72415161 C-181.29355701 369.27054898 -231.21203775 352.98648386 -273.7890625 315.45605469 C-275.05363281 314.37517578 -275.05363281 314.37517578 -276.34375 313.27246094 C-281.29643082 308.99514568 -285.5859949 304.46051854 -289.7890625 299.45605469 C-290.59988281 298.5446875 -291.41070312 297.63332031 -292.24609375 296.69433594 C-300.02722646 287.88459755 -306.54989729 278.40523198 -312.7890625 268.45605469 C-313.40394531 267.48442383 -313.40394531 267.48442383 -314.03125 266.49316406 C-325.3937955 248.28640071 -332.94890644 227.2985938 -337.7890625 206.45605469 C-337.99789062 205.57771973 -338.20671875 204.69938477 -338.421875 203.79443359 C-344.81442737 175.56908962 -344.59038567 142.53531495 -337.7890625 114.45605469 C-337.43497314 112.98676514 -337.43497314 112.98676514 -337.07373047 111.48779297 C-328.43783623 76.96091988 -312.13450778 47.07438865 -288.7890625 20.45605469 C-287.99242187 19.53566406 -287.19578125 18.61527344 -286.375 17.66699219 C-281.81945741 12.48525818 -277.08630585 7.8657029 -271.7890625 3.45605469 C-270.95246094 2.72 -270.11585938 1.98394531 -269.25390625 1.22558594 C-260.65597693 -6.21333778 -251.40186304 -12.48971943 -241.7890625 -18.54394531 C-241.1398584 -18.95531738 -240.4906543 -19.36668945 -239.82177734 -19.79052734 C-167.08785548 -65.17542805 -64.48951984 -55.6538924 0 0 Z M-239.7890625 20.45605469 C-240.67335938 21.11605469 -241.55765625 21.77605469 -242.46875 22.45605469 C-256.87667339 33.66708322 -269.83592421 47.14830153 -279.7890625 62.45605469 C-280.17852051 63.04918457 -280.56797852 63.64231445 -280.96923828 64.25341797 C-297.36585771 89.53754002 -308.79704768 120.03244179 -308.9921875 150.44433594 C-308.99924713 151.18080353 -309.00630676 151.91727112 -309.01358032 152.67605591 C-309.28848282 175.24087735 -309.28848282 175.24087735 -305.7890625 197.45605469 C-305.58506836 198.29056152 -305.38107422 199.12506836 -305.17089844 199.98486328 C-299.07705108 224.2405046 -289.05021722 246.59083602 -273.7890625 266.45605469 C-273.11746094 267.35195313 -272.44585937 268.24785156 -271.75390625 269.17089844 C-243.90325633 304.85622059 -204.09027727 326.89810466 -159.7890625 334.45605469 C-156.4890625 334.78605469 -153.1890625 335.11605469 -149.7890625 335.45605469 C-149.7890625 219.95605469 -149.7890625 104.45605469 -149.7890625 -14.54394531 C-181.29123564 -14.54394531 -215.30703862 1.66427955 -239.7890625 20.45605469 Z " fill="#000000" transform="translate(389.7890625,95.5439453125)"/>
</svg>
